<svg width="184" height="92" viewBox="0 0 184 92" fill="none" xmlns="http://www.w3.org/2000/svg">
<path d="M168.571 16.4189C154.508 16.4189 140.8 13.9321 127.831 9.02758L114.848 4.11832C100.327 -1.37295 83.6712 -1.37228 69.1508 4.11832L56.1685 9.02758C43.1989 13.9321 29.4914 16.4189 15.4283 16.4189H0C3.28639 31.4066 10.6134 45.5798 21.4206 57.5127C36.5037 74.168 57.6763 85.7011 81.0373 89.9881L92.0004 91.9994L102.963 89.9874C126.324 85.7011 147.496 74.1673 162.579 57.5127C173.387 45.5798 180.714 31.4066 184 16.4189H168.571Z" fill="#E1EBF0"/>
<path d="M162.579 57.5126C173.386 45.5797 180.713 31.4065 183.999 16.4189H168.571C154.508 16.4189 140.8 13.9321 127.831 9.02753L114.848 4.11827C107.588 1.37298 99.7936 0 92.0004 0V92L102.963 89.9881C126.323 85.701 147.495 74.1679 162.579 57.5126Z" fill="#BED9DD"/>
</svg>
