<svg id="Capa_1" enable-background="new 0 0 512 512" height="512" viewBox="0 0 512 512" width="512" xmlns="http://www.w3.org/2000/svg"><g><path d="m209.185 451.307c-40.935 40.935-107.558 40.935-148.492 0s-40.935-107.558 0-148.492l.335-20.878-21.548-.335c-52.639 52.639-52.639 138.279 0 190.919s138.279 52.639 190.919 0l-.558-21.772z" fill="#f3f5f9"/><path d="m281.602 39.48-.335 20.878 21.548.335c40.935-40.935 107.558-40.935 148.492 0s40.935 107.558 0 148.492l1.451 22.665 19.762-1.451c52.639-52.639 52.639-138.279 0-190.919s-138.279-52.64-190.918 0z" fill="#d8e0f0"/><path d="m160.541 160.541-121.061 121.061 42.426 42.426 32.713-11.5 98.955-98.954 83.993-83.994 26.461-47.674-42.426-42.426z" fill="#27cccc"/><path d="m324.028 81.906-42.426-42.426-121.061 121.061 53.033 53.033 83.993-83.994z" fill="#229bb3"/><path d="m202.967 202.967-121.061 121.061 148.492 148.492 121.061-121.061 121.061-121.061-148.492-148.492z" fill="#45e6d1"/><path d="m252.141 111.683h171.206v210h-171.206z" fill="#27cccc" transform="matrix(.707 -.707 .707 .707 -54.295 302.286)"/><g fill="#27cccc"><path d="m187.972 345.241 78.635-78.635 78.635-78.635c5.863-5.863 5.863-15.351 0-21.213-5.863-5.863-15.351-5.863-21.213 0l-78.635 78.635-78.635 78.635c-5.863 5.863-5.863 15.351 0 21.213 5.862 5.863 15.35 5.863 21.213 0z"/><path d="m366.454 209.185-78.634 78.635-78.635 78.635c-5.863 5.863-5.863 15.351 0 21.213s15.351 5.863 21.213 0l78.635-78.635 78.635-78.635c5.863-5.863 5.863-15.351 0-21.213s-15.351-5.862-21.214 0z"/></g><g fill="#229bb3"><path d="m345.241 166.759c-5.863-5.863-15.351-5.863-21.213 0l-78.635 78.635 21.213 21.213 78.635-78.635c5.863-5.863 5.863-15.351 0-21.213z"/><path d="m387.668 209.185c-5.863-5.863-15.351-5.863-21.213 0l-78.635 78.635 21.213 21.213 78.635-78.635c5.862-5.862 5.862-15.35 0-21.213z"/></g></g></svg>